<svg xmlns="http://www.w3.org/2000/svg" xmlns:xlink="http://www.w3.org/1999/xlink" version="1.1" x="0px" y="0px"
     viewBox="0 0 100 100" style="enable-background:new 0 0 100 100;" xml:space="preserve"><path d="M85,5H15C9.49,5,5,9.49,5,15v70c0,5.51,4.49,10,10,10h70c5.51,0,10-4.49,10-10V15C95,9.49,90.51,5,85,5z M91,85  c0,3.31-2.69,6-6,6H15c-3.31,0-6-2.69-6-6V15c0-3.31,2.69-6,6-6h70c3.31,0,6,2.69,6,6V85z M83,15H17c-1.1,0-2,0.9-2,2v66  c0,1.1,0.9,2,2,2h66c1.1,0,2-0.9,2-2V17C85,15.9,84.1,15,83,15z M81,81H19V19h62V81z M25.04,73.39C25.01,73.26,25,73.13,25,73V63  c0-1.1,0.9-2,2-2s2,0.9,2,2v5.17L68.17,29H63c-1.1,0-2-0.9-2-2s0.9-2,2-2h10c0.13,0,0.26,0.01,0.39,0.04  c0.06,0.01,0.12,0.03,0.17,0.05c0.07,0.02,0.13,0.04,0.2,0.06c0.07,0.03,0.13,0.07,0.2,0.1c0.05,0.03,0.1,0.05,0.15,0.08  c0.22,0.15,0.41,0.34,0.55,0.55c0.03,0.05,0.05,0.1,0.08,0.15c0.03,0.06,0.07,0.12,0.1,0.19c0.03,0.07,0.04,0.13,0.06,0.2  c0.02,0.06,0.04,0.11,0.05,0.17C74.99,26.74,75,26.87,75,27v10c0,1.1-0.9,2-2,2s-2-0.9-2-2v-5.17L31.83,71H37c1.1,0,2,0.9,2,2  s-0.9,2-2,2H27c-0.13,0-0.26-0.01-0.39-0.04c-0.06-0.01-0.11-0.03-0.17-0.05c-0.07-0.02-0.14-0.04-0.2-0.06  c-0.07-0.03-0.13-0.07-0.19-0.1c-0.05-0.03-0.11-0.05-0.15-0.08c-0.22-0.15-0.41-0.34-0.55-0.55c-0.03-0.05-0.05-0.1-0.08-0.15  c-0.04-0.06-0.07-0.13-0.1-0.2c-0.03-0.07-0.04-0.13-0.06-0.2C25.07,73.51,25.05,73.45,25.04,73.39z"/>
    </svg>
